<?xml version="1.0" encoding="UTF-8"?>
<svg id="Layer_1" data-name="Layer 1" xmlns="http://www.w3.org/2000/svg" xmlns:xlink="http://www.w3.org/1999/xlink" viewBox="0 0 512 512">
  <g transform="translate(81.375, 89.745)">
  <defs>
    <style>
      .cls-1 {
        fill: url(#linear-gradient-2);
      }

      .cls-2 {
        fill: url(#linear-gradient-3);
      }

      .cls-3 {
        fill: url(#linear-gradient);
      }
    </style>
    <linearGradient id="linear-gradient" x1=".06" y1="157.78" x2="349.25" y2="157.78" gradientUnits="userSpaceOnUse">
      <stop offset="0" stop-color="#4a90d9"/>
      <stop offset=".8" stop-color="#5ecfb1"/>
    </linearGradient>
    <linearGradient id="linear-gradient-2" x1="0" y1="298.97" x2="66.02" y2="298.97" xlink:href="#linear-gradient"/>
    <linearGradient id="linear-gradient-3" x1="247.06" y1="71.47" x2="311.37" y2="71.47" xlink:href="#linear-gradient"/>
  </defs>
  <path class="cls-3" d="m137.63,97.05c2.05,2.69,2.65,5.83,2.61,8.99-.06,5.15-.47,10.3-.78,15.45-.28,4.49-.54,8.96.86,13.33.69,2.15,1.73,4.09,3.48,5.55,3.42,2.86,7.3,2.77,11.06,1.14,6.4-2.77,10.28-7.89,12.15-14.51,3.7-13.09.41-24.55-8.85-34.17-6.04-6.27-13.77-9.6-22.42-10.88-6.46-.95-12.77-.59-18.99,1.35-7.22,2.25-12.96,6.35-16.64,13.16-1.9,3.52-4.91,6.05-8.4,8.01-6.26,3.52-13.11,5.32-20.05,6.83-.66.14-1.32.29-1.67.36-1.19,2.34-1.92,4.74-3.43,6.46-1.51,1.73-3.79,2.79-5.74,4.15,2.16,9.01,7.98,15.84,16.72,18.1,5.76,1.49,11.63,1.9,17.51,2.37,4.33.35,8.52,1.09,12.53,2.9,8.43,3.81,12.69,10.64,14.34,19.42,1.38,7.37.17,14.59-1.48,21.75-1.5,6.52-3.38,12.96-4.73,19.51-2.7,13.11-3.42,26.32-1.32,39.6,2.28,14.4,7.65,27.61,15.52,39.84.55.85,1.04,1.74,1.56,2.61-.08.1-.16.21-.24.31-.93-.55-1.94-1-2.79-1.65-12.3-9.43-24.81-18.59-36.78-28.42-9.11-7.48-17.72-15.61-26.18-23.83-6.96-6.75-13.56-13.9-19.99-21.16-8.41-9.5-15.46-20.05-22.13-30.82-9.92-16.03-16.57-33.4-20.57-51.78C.42,120.2-.4,109.25.29,98.18c.74-11.83,3.23-23.27,7.59-34.25,5.38-13.57,13.32-25.58,23.63-35.89,8.88-8.88,19.39-15.47,30.93-20.45,8.25-3.56,16.9-5.64,25.74-6.81,7.49-1,15.03-1.01,22.58-.17,11.21,1.24,21.99,4.05,32.1,9.04,11.5,5.68,21.8,13.06,30.44,22.63.41.46.69,1.04,1.12,1.71.83-.71,1.28-1.02,1.64-1.41,10.24-11.09,22.23-19.71,36.3-25.3,8.79-3.49,17.88-5.74,27.34-6.64,10.26-.98,20.38-.32,30.42,1.8,12.59,2.67,24.14,7.7,34.74,15.05,8.14,5.65,15.51,12.06,21.55,19.91,5.34,6.95,10.02,14.34,13.57,22.37,4.59,10.4,7.42,21.33,8.71,32.59.64,5.56.52,11.21.56,16.82.08,10.93-2.22,21.53-4.97,32.02-3.08,11.74-7.79,22.86-13.46,33.58-6.34,11.98-14.02,23.07-22.45,33.66-9.71,12.2-20.4,23.5-31.85,34.05-7.18,6.62-14.49,13.11-22.1,19.21-10.09,8.09-20.32,16.06-30.88,23.52-10.24,7.23-20.96,13.79-31.52,20.55-4.92,3.15-9.99,6.07-14.96,9.15-1.48.92-2.69.8-4.25,0-6.95-3.59-13.46-7.82-19.31-13-11.09-9.83-17.77-22.07-19.96-36.76-2.33-15.64.55-30.29,8.35-43.95,4.15-7.27,9.71-13.46,16.09-18.82,6.3-5.29,12.93-10.18,19.39-15.27,5.37-4.22,10.62-8.57,14.18-14.55.4-.67.69-1.41,1.13-2.33-7.13-9.61-12.86-19.96-15.86-31.69-.19.01-.38.03-.57.04-.34.47-.7.92-1.02,1.4-4.18,6.37-9.39,11.55-16.76,14.09-7.4,2.55-14.52,2.09-21.16-2.33-4.87-3.24-6.71-8.24-7.78-13.66-1.44-7.31.3-14.17,2.92-20.94,1.51-3.91,2.91-7.88,4.01-11.91.71-2.59.79-5.34,1.17-8.18Zm37.34-30.12c-.72-.6-1.35-.99-1.78-1.52-1.53-1.9-3.05-3.82-4.48-5.79-6.22-8.6-13.15-16.48-21.66-22.95-11.52-8.76-24.53-13.63-38.77-15.31-7.13-.84-14.26-.42-21.34.93-11.66,2.22-22.41,6.57-31.98,13.62-11.63,8.57-20.39,19.51-26.26,32.69-4.94,11.07-7.3,22.73-7.6,34.85-.31,12.35,2.04,24.26,5.57,36.01,2.51,8.35,6.04,16.25,10.03,23.99,6.88,13.35,15.42,25.56,25.06,37.01,11.25,13.37,23.83,25.43,37.04,36.84.37.32.76.63,1.18.98.15-.28.29-.42.3-.57.02-.45.01-.9,0-1.35-.44-9.84-.19-19.66,1.88-29.32,1.49-6.98,3.4-13.88,5.05-20.83,1.25-5.25,2.35-10.52,2.24-15.97-.14-7.01-4.16-12.21-11.03-13.59-3.77-.76-7.65-.94-11.48-1.36-6.21-.68-12.37-1.51-18.16-4.14-6.89-3.14-12.36-7.77-15.88-14.55-1.02-1.96-2-3.95-2.87-5.98-2.62-6.06-4.01-12.4-4.02-19.01-.01-6.02,2.36-9.08,8.15-10.37,7.47-1.66,14.98-3.13,22.43-4.86,5.54-1.29,10.61-3.25,13.83-8.64,5.06-8.48,12.62-13.97,22.04-16.92,5.29-1.66,10.73-2.6,16.24-2.55,4.06.04,8.14.63,12.16,1.31,9.23,1.56,17.46,5.43,24.33,11.78,6.64,6.14,11.64,13.56,14.52,22.15,3.13,9.35,5.82,18.85,8.63,28.31,2.15,7.25,4.65,14.35,8.26,21.03.17.31.48.53.95,1.04.23-.73.43-1.18.51-1.64.79-4.69,1.47-9.41,2.36-14.08,2.4-12.6,8.18-23.47,16.89-32.85,7.38-7.94,15.96-14.12,26.05-18.12.74-.29,1.52-.46,2.48-.75.63,7.29.98,14.25,2.69,20.95.43.26.7.49,1.01.6.75.27,1.5.53,2.27.71,5.1,1.22,9.67,3.53,13.91,6.57,5.41,3.89,8.55,9.29,10.6,15.46.87,2.63,2.5,4.67,4.73,6.29,1.47,1.07,2.91,2.17,4.32,3.32,1.74,1.42,2.58,3.29,2.52,5.53-.05,1.81-.13,3.63-.32,5.43-1.29,11.8-9.58,21.56-20.89,24.79-2.23.64-4.37,1.58-6.52,2.48-2.04.85-3.31,2.39-2.89,4.66.62,3.27,1.17,6.62,2.33,9.71,3.83,10.23,5.39,20.71,4.23,31.59-.03.29.13.61.29,1.32,1.06-1.11,1.85-2.02,2.72-2.85,9.72-9.33,18.85-19.19,27.15-29.82,12.69-16.24,22.9-33.79,29.01-53.59,3.74-12.1,6.3-24.35,5.68-37.13-.44-9.11-1.7-18.04-4.78-26.69-3.78-10.6-9.05-20.22-16.73-28.58-8.61-9.38-18.51-16.68-30.52-21.04-10.13-3.68-20.44-5.74-31.33-4.98-8.93.62-17.5,2.48-25.78,5.74-9.49,3.74-17.63,9.67-24.85,16.73-4.29,4.19-7.96,9-11.84,13.6-2.59,3.07-5.05,6.26-7.81,9.69Zm60.2,39.79c-.79.49-1.3.73-1.72,1.07-10.88,9.01-18.07,20.25-20.58,34.27-1.1,6.14-1.86,12.34-3.09,18.45-1.45,7.16-3.98,13.95-8.03,20.11-4.59,6.99-10.73,12.42-17.26,17.5-7.7,5.99-15.63,11.65-22.5,18.71-12.51,12.87-17.92,27.97-15.51,45.78.98,7.25,4.18,13.28,10.28,17.53,3.68,2.56,7.41,5.04,11.17,7.49,2.23,1.45,4.54,2.75,6.81,4.11.86-.44,1.52-.74,2.15-1.11,18-10.65,35.27-22.39,51.94-35,5.35-4.05,10.63-8.29,14.54-13.79,7.2-10.11,9.24-21.51,6.84-33.55-1.19-5.98-3.33-11.78-5.07-17.65-1.09-3.7-1.7-7.47-.9-11.26,1.47-6.96,6.11-11.21,12.48-13.76,2.58-1.03,5.23-1.87,7.86-2.78,4.69-1.61,7.64-4.75,9.17-9.52,1.01-3.14.58-5.28-2.17-7.33-3.99-2.99-6.82-6.89-7.94-11.94-.36-1.61-1.25-3.17-2.14-4.6-2.92-4.69-7.54-6.9-12.65-8.24-2.35-.62-4.78-.96-7.17-1.41-1.94-.36-3.15-1.56-3.71-3.36-.77-2.49-1.42-5.01-2.13-7.52-.18-.63-.39-1.25-.69-2.21Z"/>
  <path class="cls-1" d="m22.46,309.61c-.95-.08-1.68-.19-2.4-.2-4.66-.05-9.32-.24-13.96-.04-3.49.15-6.05-2.94-6.06-5.8-.01-3.18-.07-6.36.04-9.54.11-3.33,2.42-5.7,5.74-5.73,5.39-.04,10.78.12,16.17.18.16,0,.32-.06.68-.14.04-.51.1-1.06.11-1.6.02-4.88,0-9.77.05-14.65.04-4.36,1.59-6.2,5.92-6.51,2.99-.22,6.03-.18,9.02.06,3.85.3,5.69,2.47,5.73,6.43.05,5.33.01,10.67.01,16.21.56.03,1.1.07,1.63.07,4.32-.01,8.63-.06,12.95-.04,1.18,0,2.38.14,3.54.37,2.53.48,4.3,2.57,4.35,5.16.07,3.35.09,6.7.03,10.05-.06,3.08-2.09,5.34-5.18,5.43-4.81.14-9.64,0-14.46,0-.83,0-1.67.09-2.68.14-.08.85-.21,1.56-.21,2.27,0,4.88.02,9.77.03,14.65,0,3.78-2.25,6.08-5.98,6.09-2.9,0-5.79.04-8.69,0-3.88-.05-6.02-2.15-6.07-6-.07-4.71-.05-9.42-.09-14.13,0-.84-.12-1.68-.2-2.74Z"/>
  </path>
  </g>
</svg>